<svg version="1.2" overflow="visible" preserveAspectRatio="none" viewBox="0 0 26 26" xmlns:xlink="http://www.w3.org/1999/xlink" xmlns="http://www.w3.org/2000/svg" height="24" width="24"><g transform="translate(1, 1)"><desc>Created with Sketch.</desc><defs/><g fill-rule="evenodd" fill="none" stroke-width="1" stroke="none" id="Page-1_1537878568877">
        <g fill="#DA1600" transform="translate(-89.000000, -237.000000)" id="icons_mBank_02_1537878568877">
            <path id="remove-icon_1537878568877" d="M101.8,248.11534 L104.527441,245.241356 C104.679398,245.084 104.854796,245.003587 105.053641,245.000116 C105.252485,244.996645 105.430583,245.070888 105.587939,245.222845 C105.745296,245.374802 105.825708,245.5502 105.829179,245.749045 C105.83265,245.947889 105.758408,246.125987 105.60645,246.283343 L101.701854,250.397732 C101.549897,250.555088 101.374499,250.6355 101.175654,250.638971 C101.077582,250.640683 100.984557,250.623491 100.896579,250.587395 C100.745733,250.561422 100.617187,250.495311 100.510938,250.389062 C100.370312,250.248437 100.3,250.068751 100.3,249.85 L100.3,241.35 C100.3,241.131249 100.370312,240.951563 100.510938,240.810937 C100.651563,240.670312 100.831249,240.6 101.05,240.6 C101.268751,240.6 101.448437,240.670312 101.589063,240.810937 C101.729688,240.951563 101.8,241.131249 101.8,241.35 L101.8,248.11534 Z M109.484375,240.515625 C111.828137,242.859387 113,245.687483 113,249 C113,252.312517 111.828137,255.140613 109.484375,257.484375 C107.140613,259.828137 104.312517,261 101,261 C97.6874834,261 94.8593867,259.828137 92.515625,257.484375 C90.1718633,255.140613 89,252.312517 89,249 C89,245.687483 90.1718633,242.859387 92.515625,240.515625 C94.8593867,238.171863 97.6874834,237 101,237 C104.312517,237 107.140613,238.171863 109.484375,240.515625 Z M108.40625,256.453125 C110.46876,254.390615 111.5,251.906265 111.5,249 C111.5,246.093735 110.476573,243.617198 108.429688,241.570312 C106.382802,239.523427 103.906265,238.5 101,238.5 C98.0937355,238.5 95.6171977,239.523427 93.5703125,241.570312 C91.5234273,243.617198 90.5,246.093735 90.5,249 C90.5,251.906265 91.5234273,254.390615 93.5703125,256.453125 C95.6171977,258.515635 98.0937355,259.546875 101,259.546875 C103.906265,259.546875 106.37499,258.515635 108.40625,256.453125 Z" vector-effect="non-scaling-stroke" style="fill: rgb(255, 255, 255);"/>
        </g>
    </g></g></svg>